<?xml version="1.0" standalone="no"?>
<!DOCTYPE svg PUBLIC "-//W3C//DTD SVG 20010904//EN"
 "http://www.w3.org/TR/2001/REC-SVG-20010904/DTD/svg10.dtd">
<svg version="1.0" xmlns="http://www.w3.org/2000/svg"
 width="303.000000pt" height="312.000000pt" viewBox="0 0 303.000000 312.000000"
 preserveAspectRatio="xMidYMid meet">

<g transform="translate(0.000000,312.000000) scale(0.000001,-0.000001)"
fill="#000000" stroke="none">
<path d="M1940 3074 c-75 -9 -166 -25 -178 -33 -9 -5 12 -21 63 -47 235 -121
453 -349 571 -598 66 -142 115 -316 126 -456 3 -33 7 -37 88 -77 47 -23 118
-67 157 -97 l73 -55 19 42 c27 61 46 122 66 210 23 106 17 308 -14 422 -88
326 -354 585 -681 663 -85 21 -225 33 -290 26z"/>
<path d="M1035 2990 c-169 -27 -352 -97 -487 -186 -159 -106 -339 -315 -413
-479 -80 -179 -110 -314 -109 -500 2 -310 103 -575 304 -790 121 -130 201
-189 355 -265 149 -73 285 -109 444 -117 110 -6 114 -5 107 13 -19 48 -37 137
-47 224 -13 114 1 252 37 377 115 397 501 693 909 697 61 0 138 -3 172 -7 l63
-8 -6 33 c-34 202 -93 353 -194 503 -166 244 -416 415 -711 485 -106 25 -323
35 -424 20z"/>
<path d="M2061 1810 c-341 -48 -615 -294 -700 -628 -26 -99 -28 -284 -6 -382
62 -265 248 -485 501 -590 208 -86 480 -78 677 22 212 106 364 285 437 513 17
54 24 103 27 210 5 123 3 150 -17 225 -65 245 -218 437 -435 545 -152 76 -328
107 -484 85z"/>
<path d="M525 613 c19 -164 66 -265 175 -374 81 -81 177 -136 279 -159 81 -19
225 -15 298 8 65 21 169 76 217 116 l29 24 -63 69 c-34 37 -83 98 -108 136
l-45 67 -121 0 c-198 0 -403 48 -575 134 -39 20 -76 36 -82 36 -8 0 -9 -17 -4
-57z"/>
</g>
</svg>
